<svg data-v-423bf9ae="" xmlns="http://www.w3.org/2000/svg" viewBox="0 0 245.19279079190238 60" class="font"><!----><!----><!----><g data-v-423bf9ae="" id="96e83f96-0910-42bb-8b61-e53bea8b1e54" fill="black" transform="matrix(4.720692708255173,0,0,4.720692708255173,2.9740356458282378,-16.14476942239296)"><path d="M-0.63 15.60L-0.63 15.60L-0.63 15.60Q-0.63 15.39-0.47 15.11L-0.47 15.11L-0.47 15.11Q-0.31 14.83-0.20 14.83L-0.20 14.83L-0.20 14.83Q-0.11 14.83 0.10 15.06L0.10 15.06L0.10 15.06Q0.32 15.30 0.62 15.30L0.62 15.30L0.62 15.30Q1.39 15.30 1.58 14.21L1.58 14.21L1.58 14.21Q1.76 13.26 1.76 12.52L1.76 12.52L1.76 12.52Q1.76 12.36 1.76 11.94L1.76 11.94L1.76 11.94Q1.76 11.52 1.76 11.16L1.76 11.16L1.75 10.79L1.75 10.79Q1.75 10.51 1.74 10.30L1.74 10.30L1.74 10.30Q1.74 10.09 1.73 9.86L1.73 9.86L1.73 9.86Q1.72 9.62 1.72 8.64L1.72 8.64L1.72 8.64Q1.71 7.66 1.71 6.02L1.71 6.02L1.71 6.02Q1.71 5.12 1.65 4.63L1.65 4.63L1.65 4.63Q1.61 4.30 1.28 4.13L1.28 4.13L1.28 4.13Q0.95 3.96 0.59 3.95L0.59 3.95L0.59 3.95Q0.28 3.93 0.28 3.70L0.28 3.70L0.28 3.70Q0.28 3.46 0.69 3.46L0.69 3.46L0.69 3.46Q0.83 3.46 1.32 3.50L1.32 3.50L1.32 3.50Q1.82 3.54 2.27 3.54L2.27 3.54L2.27 3.54Q2.53 3.54 2.73 3.54L2.73 3.54L2.73 3.54Q2.93 3.53 3.40 3.53L3.40 3.53L3.40 3.53Q3.79 3.53 3.79 3.71L3.79 3.71L3.79 3.71Q3.79 3.84 3.15 4.10L3.15 4.10L3.15 4.10Q2.86 4.21 2.86 5.05L2.86 5.05L2.86 5.70L2.86 5.70Q2.86 8.02 2.85 9.50L2.85 9.50L2.85 9.50Q2.84 10.98 2.84 11.40L2.84 11.40L2.84 11.40Q2.84 11.82 2.83 12.07L2.83 12.07L2.83 12.07Q2.83 12.32 2.83 12.47L2.83 12.47L2.83 12.47Q2.83 14.07 1.97 15.10L1.97 15.10L1.97 15.10Q1.11 16.13-0.07 16.13L-0.07 16.13L-0.07 16.13Q-0.63 16.13-0.63 15.60ZM4.47 7.92L4.47 7.92L4.47 7.92Q4.47 7.83 4.53 7.76L4.53 7.76L4.53 7.76Q4.59 7.70 4.80 7.66L4.80 7.66L4.80 7.66Q5.01 7.62 5.40 7.62L5.40 7.62L5.40 7.62Q5.50 7.62 5.84 7.58L5.84 7.58L5.84 7.58Q6.17 7.55 6.20 7.55L6.20 7.55L6.20 7.55Q6.44 7.55 6.48 7.64L6.48 7.64L6.48 7.64Q6.52 7.74 6.52 8.25L6.52 8.25L6.52 8.25Q6.52 8.53 6.49 9.20L6.49 9.20L6.49 9.20Q6.45 9.88 6.45 10.71L6.45 10.71L6.45 10.71Q6.45 11.94 6.93 12.45L6.93 12.45L6.93 12.45Q7.41 12.96 8.01 12.96L8.01 12.96L8.01 12.96Q8.90 12.96 9.31 12.59L9.31 12.59L9.31 12.59Q9.72 12.21 9.72 11.26L9.72 11.26L9.69 9.32L9.69 9.32Q9.69 8.62 9.58 8.38L9.58 8.38L9.58 8.38Q9.46 8.13 9.04 8.09L9.04 8.09L9.04 8.09Q8.74 8.06 8.74 7.91L8.74 7.91L8.74 7.91Q8.74 7.59 9.97 7.59L9.97 7.59L9.97 7.59Q10.08 7.59 10.25 7.55L10.25 7.55L10.25 7.55Q10.42 7.52 10.47 7.52L10.47 7.52L10.47 7.52Q10.68 7.52 10.75 7.59L10.75 7.59L10.75 7.59Q10.81 7.66 10.81 7.91L10.81 7.91L10.81 7.91Q10.81 7.92 10.80 8.13L10.80 8.13L10.80 8.13Q10.79 8.33 10.79 8.67L10.79 8.67L10.79 8.67Q10.78 9.00 10.77 9.42L10.77 9.42L10.77 9.42Q10.75 9.84 10.75 10.39L10.75 10.39L10.75 10.39Q10.74 10.95 10.74 11.48L10.74 11.48L10.74 11.48Q10.74 12.33 10.82 12.64L10.82 12.64L10.82 12.64Q10.91 12.95 11.13 12.95L11.13 12.95L11.13 12.95Q11.20 12.95 11.32 12.94L11.32 12.94L11.32 12.94Q11.44 12.94 11.49 12.94L11.49 12.94L11.49 12.94Q11.83 12.94 11.83 13.12L11.83 13.12L11.83 13.12Q11.83 13.27 11.73 13.31L11.73 13.31L11.73 13.31Q11.63 13.36 11.31 13.36L11.31 13.36L11.31 13.36Q11.07 13.36 10.51 13.43L10.51 13.43L10.51 13.43Q9.94 13.51 9.90 13.51L9.90 13.51L9.90 13.51Q9.80 13.51 9.74 13.15L9.74 13.15L9.74 13.15Q9.67 12.80 9.65 12.80L9.65 12.80L9.65 12.80Q9.63 12.80 9.38 13.02L9.38 13.02L9.38 13.02Q9.13 13.24 8.66 13.47L8.66 13.47L8.66 13.47Q8.19 13.69 7.63 13.69L7.63 13.69L7.63 13.69Q5.38 13.69 5.38 11.26L5.38 11.26L5.38 11.26Q5.38 9.90 5.38 9.33L5.38 9.33L5.38 9.33Q5.39 8.76 5.39 8.74L5.39 8.74L5.39 8.74Q5.39 8.46 5.24 8.29L5.24 8.29L5.24 8.29Q5.10 8.12 4.97 8.12L4.97 8.12L4.72 8.12L4.72 8.12Q4.47 8.12 4.47 7.92ZM12.80 12.25L12.80 12.25L12.80 12.25Q12.80 11.75 13.01 11.40L13.01 11.40L13.01 11.40Q13.22 11.06 13.64 10.87L13.64 10.87L13.64 10.87Q14.07 10.68 14.53 10.57L14.53 10.57L14.53 10.57Q14.99 10.46 15.65 10.35L15.65 10.35L15.65 10.35Q15.74 10.33 15.78 10.32L15.78 10.32L15.78 10.32Q15.82 10.32 15.89 10.31L15.89 10.31L15.89 10.31Q15.96 10.30 16.02 10.29L16.02 10.29L16.02 10.29Q16.11 10.28 16.15 10.26L16.15 10.26L16.15 10.26Q16.18 10.25 16.22 10.20L16.22 10.20L16.22 10.20Q16.25 10.15 16.25 10.07L16.25 10.07L16.25 10.07Q16.25 9.93 16.27 9.68L16.27 9.68L16.27 9.68Q16.28 9.44 16.28 9.34L16.28 9.34L16.28 9.34Q16.28 8.54 15.82 8.18L15.82 8.18L15.82 8.18Q15.36 7.83 14.92 7.83L14.92 7.83L14.92 7.83Q13.92 7.83 13.92 8.67L13.92 8.67L13.92 8.67Q13.92 8.78 13.94 8.95L13.94 8.95L13.94 8.95Q13.97 9.11 13.97 9.17L13.97 9.17L13.97 9.17Q13.97 9.45 13.72 9.45L13.72 9.45L13.72 9.45Q13.64 9.45 13.51 9.43L13.51 9.43L13.51 9.43Q13.38 9.41 13.22 9.36L13.22 9.36L13.22 9.36Q13.06 9.31 12.96 9.19L12.96 9.19L12.96 9.19Q12.85 9.07 12.85 8.90L12.85 8.90L12.85 8.90Q12.85 8.36 13.59 7.86L13.59 7.86L13.59 7.86Q14.32 7.36 15.20 7.36L15.20 7.36L15.20 7.36Q15.81 7.36 16.23 7.50L16.23 7.50L16.23 7.50Q16.65 7.64 16.85 7.82L16.85 7.82L16.85 7.82Q17.05 7.99 17.16 8.28L17.16 8.28L17.16 8.28Q17.28 8.57 17.29 8.73L17.29 8.73L17.29 8.73Q17.30 8.89 17.30 9.13L17.30 9.13L17.30 9.13Q17.30 10.14 17.27 10.72L17.27 10.72L17.27 10.72Q17.23 11.30 17.23 11.73L17.23 11.73L17.23 11.73Q17.23 12.25 17.35 12.55L17.35 12.55L17.35 12.55Q17.46 12.85 17.61 12.94L17.61 12.94L17.61 12.94Q17.77 13.02 17.92 13.03L17.92 13.03L17.92 13.03Q18.07 13.05 18.19 13.09L18.19 13.09L18.19 13.09Q18.30 13.13 18.30 13.26L18.30 13.26L18.30 13.26Q18.30 13.55 17.42 13.55L17.42 13.55L17.42 13.55Q17.05 13.55 16.79 13.36L16.79 13.36L16.79 13.36Q16.53 13.16 16.42 12.97L16.42 12.97L16.42 12.97Q16.31 12.78 16.30 12.78L16.30 12.78L16.30 12.78Q16.28 12.78 16.18 12.87L16.18 12.87L16.18 12.87Q16.09 12.96 15.91 13.09L15.91 13.09L15.91 13.09Q15.74 13.22 15.52 13.34L15.52 13.34L15.52 13.34Q15.30 13.47 15.02 13.56L15.02 13.56L15.02 13.56Q14.73 13.65 14.45 13.65L14.45 13.65L14.45 13.65Q13.55 13.65 13.15 13.23L13.15 13.23L13.15 13.23Q12.80 12.88 12.80 12.25ZM13.89 12.04L13.89 12.04L13.89 12.04Q13.89 12.52 14.17 12.80L14.17 12.80L14.17 12.80Q14.45 13.09 14.97 13.09L14.97 13.09L14.97 13.09Q15.33 13.09 15.59 12.98L15.59 12.98L15.59 12.98Q15.85 12.87 15.97 12.73L15.97 12.73L15.97 12.73Q16.10 12.59 16.17 12.36L16.17 12.36L16.17 12.36Q16.24 12.12 16.25 12.00L16.25 12.00L16.25 12.00Q16.25 11.87 16.25 11.66L16.25 11.66L16.25 10.65L16.25 10.65Q16.25 10.53 16.16 10.53L16.16 10.53L16.16 10.53Q16.13 10.53 16.09 10.54L16.09 10.54L16.09 10.54Q16.04 10.56 16.02 10.56L16.02 10.56L16.02 10.56Q15.69 10.61 15.61 10.63L15.61 10.63L15.61 10.63Q15.53 10.64 15.22 10.71L15.22 10.71L15.22 10.71Q14.91 10.78 14.79 10.84L14.79 10.84L14.79 10.84Q14.67 10.89 14.46 11.01L14.46 11.01L14.46 11.01Q14.24 11.13 14.15 11.26L14.15 11.26L14.15 11.26Q14.06 11.40 13.97 11.60L13.97 11.60L13.97 11.60Q13.89 11.80 13.89 12.04ZM19.01 7.98L19.01 7.98L19.01 7.98Q19.01 7.90 19.10 7.85L19.10 7.85L19.10 7.85Q19.19 7.81 19.40 7.78L19.40 7.78L19.40 7.78Q19.61 7.76 19.70 7.73L19.70 7.73L19.70 7.73Q19.96 7.66 20.25 7.54L20.25 7.54L20.25 7.54Q20.54 7.42 20.71 7.34L20.71 7.34L20.71 7.34Q20.89 7.25 20.94 7.25L20.94 7.25L20.97 7.25L20.97 7.25Q21.10 7.25 21.10 7.42L21.10 7.42L21.10 7.42Q21.10 7.45 21.08 7.67L21.08 7.67L21.08 7.67Q21.07 7.90 21.07 8.02L21.07 8.02L21.07 8.02Q21.07 8.39 21.14 8.39L21.14 8.39L21.14 8.39Q21.18 8.39 21.24 8.31L21.24 8.31L21.24 8.31Q21.29 8.23 21.44 8.08L21.44 8.08L21.44 8.08Q21.59 7.94 21.80 7.81L21.80 7.81L21.80 7.81Q22.43 7.42 23.02 7.42L23.02 7.42L23.02 7.42Q23.58 7.42 24.02 7.59L24.02 7.59L24.02 7.59Q24.47 7.77 24.72 8.03L24.72 8.03L24.72 8.03Q24.98 8.29 25.14 8.62L25.14 8.62L25.14 8.62Q25.31 8.96 25.37 9.24L25.37 9.24L25.37 9.24Q25.42 9.52 25.42 9.77L25.42 9.77L25.42 9.77Q25.42 9.83 25.42 9.90L25.42 9.90L25.42 9.90Q25.42 9.98 25.43 10.10L25.43 10.10L25.43 10.10Q25.44 10.22 25.44 10.65L25.44 10.65L25.44 10.65Q25.44 11.09 25.44 11.77L25.44 11.77L25.44 12.08L25.44 12.08Q25.44 12.61 25.59 12.82L25.59 12.82L25.59 12.82Q25.73 13.02 26.29 13.10L26.29 13.10L26.29 13.10Q26.57 13.15 26.57 13.31L26.57 13.31L26.57 13.31Q26.57 13.45 26.29 13.45L26.29 13.45L26.29 13.45Q25.97 13.45 25.62 13.42L25.62 13.42L25.62 13.42Q25.27 13.38 25.14 13.38L25.14 13.38L25.14 13.38Q24.95 13.38 24.54 13.41L24.54 13.41L24.54 13.41Q24.12 13.44 24.07 13.44L24.07 13.44L24.07 13.44Q23.79 13.44 23.79 13.26L23.79 13.26L23.79 13.26Q23.79 13.19 23.84 13.15L23.84 13.15L23.84 13.15Q23.88 13.10 23.95 13.09L23.95 13.09L23.95 13.09Q24.01 13.08 24.07 13.06L24.07 13.06L24.14 13.05L24.14 13.05Q24.44 12.95 24.44 12.11L24.44 12.11L24.44 10.22L24.44 10.22Q24.44 9.14 23.91 8.59L23.91 8.59L23.91 8.59Q23.38 8.04 22.64 8.04L22.64 8.04L22.64 8.04Q22.04 8.04 21.59 8.36L21.59 8.36L21.59 8.36Q21.14 8.68 21.07 8.89L21.07 8.89L21.07 8.89Q20.94 9.24 20.94 11.10L20.94 11.10L20.94 11.63L20.94 11.63Q20.94 12.33 21.09 12.67L21.09 12.67L21.09 12.67Q21.24 13.01 21.74 13.05L21.74 13.05L21.74 13.05Q21.88 13.05 22.10 13.10L22.10 13.10L22.10 13.10Q22.32 13.15 22.32 13.26L22.32 13.26L22.32 13.26Q22.32 13.44 22.05 13.44L22.05 13.44L22.05 13.44Q21.81 13.44 21.59 13.41L21.59 13.41L21.59 13.41Q21.36 13.38 21.03 13.38L21.03 13.38L21.03 13.38Q20.66 13.38 20.06 13.41L20.06 13.41L19.46 13.44L19.46 13.44Q19.25 13.44 19.25 13.30L19.25 13.30L19.25 13.30Q19.25 13.19 19.32 13.16L19.32 13.16L19.32 13.16Q19.39 13.13 19.50 13.12L19.50 13.12L19.50 13.12Q19.60 13.10 19.70 13.03L19.70 13.03L19.70 13.03Q19.81 12.96 19.89 12.69L19.89 12.69L19.89 12.69Q19.98 12.42 19.99 11.96L19.99 11.96L19.99 11.96Q20.02 11.17 20.02 10.91L20.02 10.91L20.02 8.89L20.02 8.89Q20.02 8.44 19.86 8.29L19.86 8.29L19.86 8.29Q19.70 8.13 19.42 8.13L19.42 8.13L19.28 8.13L19.28 8.13Q19.01 8.13 19.01 7.98ZM27.13 3.64L27.13 3.64L27.13 3.64Q27.13 3.51 27.25 3.49L27.25 3.49L27.25 3.49Q27.37 3.47 27.85 3.47L27.85 3.47L29.06 3.47L29.06 3.47Q29.41 3.47 30.35 3.44L30.35 3.44L30.35 3.44Q31.29 3.42 31.79 3.42L31.79 3.42L31.79 3.42Q32.76 3.42 33.73 3.71L33.73 3.71L33.73 3.71Q34.69 4.00 35.50 4.56L35.50 4.56L35.50 4.56Q36.32 5.11 36.82 6.00L36.82 6.00L36.82 6.00Q37.32 6.89 37.32 7.98L37.32 7.98L37.32 7.98Q37.32 8.96 37.19 9.68L37.19 9.68L37.19 9.68Q37.06 10.40 36.75 10.93L36.75 10.93L36.75 10.93Q36.44 11.45 36.13 11.78L36.13 11.78L36.13 11.78Q35.83 12.11 35.29 12.56L35.29 12.56L35.29 12.56Q34.87 12.89 34.08 13.19L34.08 13.19L34.08 13.19Q33.28 13.48 32.44 13.48L32.44 13.48L32.44 13.48Q32.35 13.48 31.01 13.45L31.01 13.45L31.01 13.45Q29.67 13.41 29.08 13.41L29.08 13.41L29.08 13.41Q28.59 13.41 28.17 13.45L28.17 13.45L28.17 13.45Q27.75 13.48 27.68 13.48L27.68 13.48L27.68 13.48Q27.34 13.48 27.34 13.30L27.34 13.30L27.34 13.30Q27.34 13.19 27.39 13.14L27.39 13.14L27.39 13.14Q27.44 13.09 27.60 13.05L27.60 13.05L27.60 13.05Q27.76 13.01 27.83 12.98L27.83 12.98L27.83 12.98Q28.06 12.88 28.25 12.61L28.25 12.61L28.25 12.61Q28.43 12.33 28.43 12.07L28.43 12.07L28.43 12.07Q28.43 11.28 28.44 10.07L28.44 10.07L28.44 10.07Q28.45 8.85 28.45 8.27L28.45 8.27L28.45 8.27Q28.45 7.77 28.44 6.70L28.44 6.70L28.44 6.70Q28.43 5.63 28.43 4.72L28.43 4.72L28.43 4.72Q28.43 4.48 28.20 4.23L28.20 4.23L28.20 4.23Q27.97 3.99 27.69 3.98L27.69 3.98L27.69 3.98Q27.50 3.96 27.41 3.95L27.41 3.95L27.41 3.95Q27.31 3.93 27.22 3.86L27.22 3.86L27.22 3.86Q27.13 3.78 27.13 3.64ZM29.61 11.47L29.61 11.47L29.61 11.47Q29.61 11.73 29.62 11.90L29.62 11.90L29.62 11.90Q29.62 12.07 29.67 12.21L29.67 12.21L29.67 12.21Q29.72 12.35 29.75 12.40L29.75 12.40L29.75 12.40Q29.78 12.46 29.92 12.53L29.92 12.53L29.92 12.53Q30.06 12.60 30.14 12.62L30.14 12.62L30.14 12.62Q30.21 12.64 30.46 12.71L30.46 12.71L30.46 12.71Q30.72 12.78 30.88 12.82L30.88 12.82L30.88 12.82Q31.37 12.96 31.91 12.96L31.91 12.96L32.19 12.96L32.19 12.96Q33.14 12.96 33.81 12.69L33.81 12.69L33.81 12.69Q34.48 12.42 35.10 11.83L35.10 11.83L35.10 11.83Q36.13 10.84 36.13 8.61L36.13 8.61L36.13 8.61Q36.13 7.49 35.69 6.58L35.69 6.58L35.69 6.58Q35.25 5.67 34.54 5.13L34.54 5.13L34.54 5.13Q33.82 4.59 33.00 4.30L33.00 4.30L33.00 4.30Q32.17 4.02 31.33 4.02L31.33 4.02L31.33 4.02Q30.95 4.02 30.78 4.02L30.78 4.02L30.78 4.02Q30.60 4.02 30.37 4.05L30.37 4.05L30.37 4.05Q30.14 4.09 30.07 4.11L30.07 4.11L30.07 4.11Q29.99 4.13 29.88 4.25L29.88 4.25L29.88 4.25Q29.76 4.37 29.74 4.45L29.74 4.45L29.74 4.45Q29.72 4.54 29.69 4.78L29.69 4.78L29.69 4.78Q29.65 5.03 29.65 5.21L29.65 5.21L29.65 5.21Q29.65 5.39 29.65 5.80L29.65 5.80L29.65 5.80Q29.65 6.10 29.64 7.24L29.64 7.24L29.64 7.24Q29.62 8.39 29.62 8.48L29.62 8.48L29.62 8.48Q29.62 9.32 29.62 10.30L29.62 10.30L29.62 10.30Q29.61 11.28 29.61 11.47ZM38.49 10.72L38.49 10.72L38.49 10.72Q38.49 9.32 39.28 8.36L39.28 8.36L39.28 8.36Q40.07 7.39 41.33 7.39L41.33 7.39L41.33 7.39Q41.92 7.39 42.40 7.60L42.40 7.60L42.40 7.60Q42.88 7.81 43.15 8.11L43.15 8.11L43.15 8.11Q43.41 8.41 43.60 8.75L43.60 8.75L43.60 8.75Q43.78 9.09 43.84 9.30L43.84 9.30L43.84 9.30Q43.90 9.52 43.90 9.62L43.90 9.62L43.90 9.62Q43.90 9.87 43.33 9.87L43.33 9.87L40.15 9.87L39.73 9.87L39.73 9.87Q39.62 9.87 39.60 9.89L39.60 9.89L39.60 9.89Q39.58 9.91 39.58 10.02L39.58 10.02L39.58 10.02Q39.58 11.34 40.28 12.10L40.28 12.10L40.28 12.10Q40.99 12.85 41.94 12.85L41.94 12.85L41.94 12.85Q42.53 12.85 43.14 12.54L43.14 12.54L43.14 12.54Q43.75 12.22 43.78 12.22L43.78 12.22L43.78 12.22Q43.92 12.22 43.92 12.35L43.92 12.35L43.92 12.35Q43.92 12.40 43.82 12.55L43.82 12.55L43.82 12.55Q43.72 12.70 43.51 12.89L43.51 12.89L43.51 12.89Q43.30 13.09 43.02 13.27L43.02 13.27L43.02 13.27Q42.74 13.45 42.32 13.58L42.32 13.58L42.32 13.58Q41.90 13.71 41.44 13.71L41.44 13.71L41.44 13.71Q40.21 13.71 39.35 12.95L39.35 12.95L39.35 12.95Q38.49 12.19 38.49 10.72ZM39.66 9.34L39.66 9.34L39.66 9.34Q39.66 9.53 39.84 9.53L39.84 9.53L39.84 9.53Q40.22 9.53 41.23 9.49L41.23 9.49L41.23 9.49Q42.24 9.45 42.31 9.45L42.31 9.45L42.31 9.45Q42.50 9.45 42.55 9.41L42.55 9.41L42.55 9.41Q42.60 9.38 42.60 9.28L42.60 9.28L42.60 9.28Q42.60 8.86 42.21 8.30L42.21 8.30L42.21 8.30Q41.82 7.74 41.09 7.74L41.09 7.74L41.09 7.74Q40.42 7.74 40.04 8.29L40.04 8.29L40.04 8.29Q39.66 8.85 39.66 9.34ZM44.53 7.62L44.53 7.62L44.53 7.62Q44.53 7.46 44.80 7.46L44.80 7.46L44.80 7.46Q44.83 7.46 44.96 7.48L44.96 7.48L44.96 7.48Q45.09 7.49 45.32 7.50L45.32 7.50L45.32 7.50Q45.54 7.52 45.79 7.52L45.79 7.52L45.79 7.52Q45.99 7.52 46.20 7.52L46.20 7.52L46.20 7.52Q46.41 7.53 46.61 7.53L46.61 7.53L46.61 7.53Q46.70 7.53 46.89 7.51L46.89 7.51L46.89 7.51Q47.08 7.49 47.15 7.49L47.15 7.49L47.15 7.49Q47.40 7.49 47.40 7.64L47.40 7.64L47.40 7.64Q47.40 7.88 47.07 7.88L47.07 7.88L47.07 7.88Q46.48 7.88 46.48 8.27L46.48 8.27L46.48 8.27Q46.48 8.36 46.52 8.48L46.52 8.48L46.52 8.48Q46.55 8.61 46.64 8.83L46.64 8.83L46.64 8.83Q46.73 9.04 46.83 9.25L46.83 9.25L46.83 9.25Q46.93 9.46 47.11 9.85L47.11 9.85L47.11 9.85Q47.29 10.23 47.45 10.58L47.45 10.58L47.45 10.58Q47.53 10.75 47.73 11.21L47.73 11.21L47.73 11.21Q47.92 11.68 48.03 11.89L48.03 11.89L48.03 11.89Q48.15 12.11 48.20 12.11L48.20 12.11L48.20 12.11Q48.34 12.11 49.06 10.42L49.06 10.42L49.06 10.42Q49.77 8.72 49.77 8.40L49.77 8.40L49.77 8.40Q49.77 8.12 49.64 8.00L49.64 8.00L49.64 8.00Q49.50 7.88 49.34 7.90L49.34 7.90L49.34 7.90Q49.17 7.92 49.03 7.87L49.03 7.87L49.03 7.87Q48.90 7.83 48.90 7.67L48.90 7.67L48.90 7.67Q48.90 7.49 49.34 7.49L49.34 7.49L49.34 7.49Q49.43 7.49 49.75 7.50L49.75 7.50L49.75 7.50Q50.06 7.50 50.27 7.50L50.27 7.50L50.27 7.50Q50.43 7.50 50.64 7.50L50.64 7.50L50.64 7.50Q50.86 7.49 50.92 7.49L50.92 7.49L50.92 7.49Q51.16 7.49 51.23 7.53L51.23 7.53L51.23 7.53Q51.31 7.57 51.31 7.70L51.31 7.70L51.31 7.70Q51.31 7.77 51.24 7.81L51.24 7.81L51.24 7.81Q51.17 7.85 51.03 7.94L51.03 7.94L51.03 7.94Q50.89 8.04 50.76 8.20L50.76 8.20L50.76 8.20Q50.41 8.68 49.76 10.08L49.76 10.08L49.76 10.08Q49.10 11.48 48.55 12.56L48.55 12.56L48.55 12.56Q48.01 13.64 47.80 13.64L47.80 13.64L47.80 13.64Q47.66 13.64 47.57 13.49L47.57 13.49L47.57 13.49Q47.49 13.34 47.18 12.63L47.18 12.63L47.18 12.63Q46.55 11.16 45.92 9.74L45.92 9.74L45.92 9.74Q45.57 8.97 45.28 8.50L45.28 8.50L45.28 8.50Q44.98 8.04 44.84 7.94L44.84 7.94L44.84 7.94Q44.69 7.84 44.61 7.78L44.61 7.78L44.61 7.78Q44.53 7.71 44.53 7.62Z"></path></g><!----><!----></svg>